<svg width="128" height="128" viewBox="0 0 128 128" fill="none" xmlns="http://www.w3.org/2000/svg">
    <!-- Background circle with gradient -->
    <circle cx="64" cy="64" r="60" fill="url(#logoGradient)" opacity="0.1"/>
    
    <!-- Three small files merging into one -->
    <!-- Left file (slightly smaller, faded) -->
    <path d="M20 42 L20 54 L32 54 L32 42 Z" fill="#34495e" opacity="0.4"/>
    <rect x="20" y="54" width="12" height="22" rx="1.5" fill="#34495e" opacity="0.4"/>
    
    <!-- Top file (slightly smaller, faded) -->
    <path d="M48 26 L48 38 L60 38 L60 26 Z" fill="#34495e" opacity="0.4"/>
    <rect x="48" y="38" width="12" height="16" rx="1.5" fill="#34495e" opacity="0.4"/>
    
    <!-- Right file (slightly smaller, faded) -->
    <path d="M76 42 L76 54 L88 54 L88 42 Z" fill="#34495e" opacity="0.4"/>
    <rect x="76" y="54" width="12" height="22" rx="1.5" fill="#34495e" opacity="0.4"/>
    
    <!-- Merge arrows -->
    <path d="M35 64 L48 76" stroke="#5d6d7e" stroke-width="4" stroke-linecap="round" opacity="0.6"/>
    <path d="M58 54 L58 70" stroke="#5d6d7e" stroke-width="4" stroke-linecap="round" opacity="0.6"/>
    <path d="M73 64 L60 76" stroke="#5d6d7e" stroke-width="4" stroke-linecap="round" opacity="0.6"/>
    
    <!-- Main consolidated file (larger, prominent) -->
    <path d="M42 76 L42 86 L70 86 L70 76 L62 76 L62 68 L42 68 Z" fill="url(#logoGradient)"/>
    <rect x="42" y="86" width="28" height="28" rx="3" fill="url(#logoGradient)"/>
    
    <!-- Spreadsheet grid lines on main file -->
    <line x1="48" y1="92" x2="64" y2="92" stroke="white" stroke-width="1.5" opacity="0.9"/>
    <line x1="48" y1="98" x2="64" y2="98" stroke="white" stroke-width="1.5" opacity="0.9"/>
    <line x1="48" y1="104" x2="64" y2="104" stroke="white" stroke-width="1.5" opacity="0.9"/>
    <line x1="54" y1="86" x2="54" y2="108" stroke="white" stroke-width="1.5" opacity="0.9"/>
    <line x1="60" y1="86" x2="60" y2="108" stroke="white" stroke-width="1.5" opacity="0.9"/>
    
    <!-- Checkmark on main file -->
    <path d="M50 100 L54 104 L62 96" stroke="white" stroke-width="3.5" stroke-linecap="round" stroke-linejoin="round"/>
    
    <!-- Gradient definition -->
    <defs>
        <linearGradient id="logoGradient" x1="0%" y1="0%" x2="100%" y2="100%">
            <stop offset="0%" style="stop-color:#5d6d7e;stop-opacity:1" />
            <stop offset="100%" style="stop-color:#34495e;stop-opacity:1" />
        </linearGradient>
    </defs>
</svg>
